<?xml version="1.0" standalone="no"?>
<!DOCTYPE svg PUBLIC "-//W3C//DTD SVG 20010904//EN"
 "http://www.w3.org/TR/2001/REC-SVG-20010904/DTD/svg10.dtd">
<svg version="1.0" xmlns="http://www.w3.org/2000/svg"
 width="60.000000pt" height="60.000000pt" viewBox="0 0 60.000000 60.000000"
 preserveAspectRatio="xMidYMid meet">

<g transform="translate(0.000000,60.000000) scale(0.100000,-0.100000)"
fill="#000000" stroke="none">
<path d="M315 500 l-39 -40 42 -42 c32 -33 44 -40 54 -30 9 9 7 16 -7 32 -18
20 -18 20 27 20 25 0 50 -6 56 -13 6 -7 12 -37 14 -67 2 -41 7 -55 18 -55 11
0 16 15 18 62 3 56 0 66 -22 88 -20 20 -35 25 -77 25 -51 0 -52 0 -35 19 17
18 15 41 -3 41 -4 0 -25 -18 -46 -40z"/>
<path d="M109 471 c-58 -58 -25 -143 105 -269 124 -122 200 -149 257 -93 16
16 29 36 29 44 0 8 -26 29 -57 47 -55 31 -57 32 -90 16 -33 -16 -35 -15 -68
10 -18 14 -45 41 -59 59 -25 33 -26 35 -10 68 16 33 15 35 -16 90 -18 31 -39
57 -47 57 -8 0 -28 -13 -44 -29z"/>
</g>
</svg>
